<svg width="96" height="96" viewBox="0 0 96 96" fill="none" xmlns="http://www.w3.org/2000/svg">
<g clip-path="url(#clip0_3270_5782)">
<path d="M96 0H0V96H96V0Z" fill="#E61D2B"/>
<path d="M64.4422 36.7145C64.4422 36.7145 62.9675 37.3489 61.2525 39.3917C59.5374 41.4345 58.5386 43.7317 59.2778 44.3426C59.5617 44.5748 60.2166 44.619 61.4047 43.458C62.5012 42.4292 63.3619 41.1394 63.9191 39.6903C64.6864 37.6682 64.4422 36.7394 64.4422 36.7172M73.8283 40.3896C71.9226 39.3337 70.5299 38.04 69.0809 37.2397C67.6983 36.4726 66.8043 36.1519 65.6866 36.3137C65.5306 36.3437 65.3768 36.3853 65.2261 36.438C65.2261 36.438 65.8017 38.5624 63.5111 42.1312C61.1911 45.7496 59.086 45.7248 58.4874 44.731C57.8608 43.6819 58.6703 41.5437 60.0222 39.6405C61.4379 37.6502 63.9242 35.9999 63.9242 35.9999C63.9242 35.9999 63.1313 35.4761 61.1847 36.6689C59.2855 37.8271 56.0165 40.5914 52.9829 45.2534C49.9493 49.9155 49.3482 52.4807 48.9133 54.5001C48.4785 56.5194 48.8737 58.6825 50.9456 58.6825C53.0174 58.6825 55.4295 55.2672 56.1099 54.0799C57.3748 51.8684 58.1997 48.4766 56.4782 48.9424C55.6303 49.1719 54.9435 50.1864 54.51 51.1635C54.2362 51.7912 54.0269 52.4493 53.8858 53.1262C53.2843 53.3941 52.7194 53.7494 52.2066 54.1822C51.6362 54.6388 51.103 55.1475 50.613 55.7025C50.613 55.7025 50.6207 54.0882 51.8114 51.4759C53.0021 48.8636 55.1878 47.6708 56.4258 47.5589C57.541 47.4621 58.9926 48.4849 57.7623 52.2582C56.5319 56.0315 52.9023 60.6189 49.0898 60.6755C45.5715 60.7281 43.2694 55.8753 48.1664 47.4068C53.5866 38.051 59.9441 35.1803 62.0083 34.861C64.0725 34.5417 64.744 35.5258 64.744 35.5258C65.9866 34.9749 67.3286 34.7358 68.669 34.8265C71.1898 35.0103 73.1389 36.9384 75.7121 38.2929C75.0433 38.984 74.4051 39.7096 73.8295 40.3896M85.1532 37.2397C83.4062 38.4505 80.989 39.5479 78.6665 39.3129C78.0782 39.9695 77.4489 40.7296 76.8184 41.5589C80.8458 42.42 84.3744 39.7234 86.2506 37.4277C86.9345 36.6023 87.5221 35.6892 88.0001 34.709C87.146 35.6705 86.19 36.5199 85.1519 37.2397M79.7894 49.5022C79.8199 49.4448 79.8447 49.3841 79.8636 49.3211C79.8516 49.2215 79.8084 49.1292 79.7411 49.0598C79.6739 48.9904 79.5866 48.948 79.4939 48.9397C79.1103 48.9203 78.5872 48.9991 77.2149 50.6411C76.0764 51.9971 75.0967 53.4992 74.2976 55.1137C73.5124 56.6645 73.1939 57.82 73.6454 58.1186C73.792 58.2007 73.9621 58.2194 74.1211 58.1711C74.4268 58.0923 74.7734 57.7827 75.3003 57.1234C75.5472 56.8138 75.8208 56.3757 76.1482 55.8905C77.0563 54.5554 79.3379 50.3522 79.7894 49.5022ZM65.5344 51.2879C65.7633 50.6411 66.0549 49.3709 65.4487 48.8719C64.7977 48.3426 63.1376 49.5851 63.1287 50.8595C63.1172 52.1642 64.2976 52.7544 64.5803 52.8373C64.7414 52.8843 64.7977 52.8774 64.8757 52.7378C65.1261 52.2716 65.3462 51.7871 65.5344 51.2879ZM64.2785 53.6611C63.8671 53.4558 63.4833 53.1913 63.1376 52.8747C62.791 52.5604 62.5013 52.1794 62.2833 51.751C62.2603 51.7095 62.2373 51.7413 62.2117 51.7786C62.1861 51.8159 62.0838 51.9168 61.1988 53.3183C60.3138 54.7198 58.9542 57.6237 60.1846 58.1186C60.9724 58.4351 62.2833 56.9437 62.9982 55.9555C63.4853 55.2657 63.9268 54.5396 64.3194 53.7827C64.3565 53.6984 64.3194 53.6791 64.2797 53.6611M78.2355 57.0156C77.9017 57.5933 77.5205 58.7018 78.6191 58.0121C79.9633 57.1732 81.8779 54.0343 81.8779 54.0343H82.7463C81.9561 55.3473 81.0763 56.5947 80.1142 57.7661C78.7522 59.3971 77.0908 60.8787 75.9206 60.7322C74.5534 60.5594 74.9819 58.6203 74.9819 58.6203C74.9819 58.6203 73.0264 60.8704 71.6733 60.7087C69.8457 60.4903 70.4033 58.0494 70.4033 58.0494C70.4033 58.0494 68.3365 60.7903 66.9284 60.706C64.721 60.5677 65.276 57.6652 65.8899 55.621C66.2186 54.5277 66.523 53.6694 66.523 53.6694C66.523 53.6694 66.3043 53.7316 65.8336 53.8076C65.5881 53.8449 65.1405 53.8726 65.1405 53.8726C65.1405 53.8726 64.2209 55.6251 63.4855 56.6784C62.7501 57.7316 59.6244 61.3625 57.7853 60.6355C56.0843 59.9637 56.6471 57.1497 57.6369 54.9133C59.0821 51.6528 63.1466 46.9687 65.4909 47.5879C67.9209 48.2251 65.5459 53.017 65.5459 53.017C65.5459 53.017 65.5459 53.035 65.5715 53.0474C65.6201 53.0668 65.7467 53.082 66.0395 53.0198C66.3431 52.9529 66.6405 52.8571 66.9284 52.7337C66.9284 52.7337 69.3712 47.205 72.0697 43.5879C74.7683 39.9708 80.1513 33.7415 82.2641 35.248C82.7757 35.6184 82.5455 36.8942 81.8497 38.4422C81.5364 38.5522 81.2179 38.6444 80.8957 38.7186C81.3612 37.805 81.6694 37.0351 81.7615 36.4975C82.0799 34.6288 78.0423 38.5707 75.1571 42.8056C73.4191 45.3587 71.8751 48.0595 70.5401 50.8816C71.0613 50.538 71.5589 50.1542 72.0288 49.733C73.3158 48.5798 74.5389 47.3457 75.6917 46.0371C76.8018 44.8089 77.843 43.5101 78.8097 42.1477C79.1169 42.1317 79.423 42.0975 79.7267 42.0455C78.6726 43.5916 77.5233 45.0591 76.2864 46.438C75.1353 47.6957 73.8896 49.0488 72.8077 50.0316C71.8412 50.9197 70.8219 51.7383 69.7561 52.4821C69.7561 52.4821 67.2328 57.9817 68.6051 58.3342C69.4121 58.5443 71.0057 55.8919 71.0057 55.8919C71.0057 55.8919 73.0852 52.4628 74.3386 50.9161C76.0485 48.8153 77.5205 47.599 78.9913 47.5768C79.8482 47.5603 80.3534 48.5444 80.3534 48.5444L80.7563 47.8699H83.2374C83.2374 47.8699 78.6038 56.3674 78.2329 57.0073M85.1519 37.2397C83.4049 38.4505 80.9877 39.5479 78.6652 39.3129C78.0769 39.9695 77.4476 40.7296 76.8171 41.5589C80.8445 42.42 84.3731 39.7234 86.2493 37.4277C86.9337 36.6023 87.5217 35.6893 88.0001 34.709C87.146 35.6705 86.19 36.5199 85.1519 37.2397ZM50.3074 41.4083H47.9477L46.6138 43.7372H48.9734L50.3074 41.4083ZM39.1346 49.4732C40.1386 47.986 42.9087 42.7739 42.9087 42.7739C42.8971 42.6743 42.8541 42.5821 42.7871 42.5127C42.72 42.4432 42.6329 42.4008 42.5404 42.3924C42.1567 42.373 41.5173 42.5126 40.2473 44.2306C38.9773 45.9487 37.9912 47.3156 37.2725 48.7379C36.4847 50.29 36.1406 51.3847 36.5934 51.6819C36.7403 51.7614 36.9091 51.7801 37.0678 51.7344C37.362 51.6542 37.747 51.3349 38.2752 50.6784C38.5233 50.3716 38.8046 49.9583 39.1346 49.4732ZM26.4732 42.4242C25.8209 41.892 24.1621 43.1374 24.1532 44.4089C24.1429 45.7151 25.6457 46.1145 25.8401 46.1242C25.8973 46.1293 25.9546 46.1164 26.0051 46.0869C26.0397 46.065 26.0674 46.0322 26.0844 45.9929C26.261 45.6177 26.4198 45.2329 26.5601 44.8402C26.789 44.1933 27.0794 42.9231 26.4732 42.4242ZM25.4897 46.9203C25.0399 46.7685 24.6101 46.5548 24.2107 46.2845C23.8237 46.0119 23.509 45.6351 23.2976 45.1912C23.2745 45.1498 23.249 45.1816 23.2259 45.2189C23.2029 45.2562 23.0699 45.4359 22.1823 46.8429C21.2947 48.25 19.98 51.1276 21.2116 51.6224C21.9969 51.9445 23.3231 50.4407 24.0432 49.4566C24.582 48.6832 25.0799 47.8775 25.5344 47.0433C25.5638 46.959 25.5344 46.9397 25.4909 46.9245M44.7619 47.7869H45.6265C45.6265 47.7869 41.2947 54.5595 38.8481 54.2444C37.4822 54.0716 37.8876 52.2499 37.8876 52.2499C37.8876 52.2499 35.9692 54.677 34.2069 54.1849C32.6082 53.7413 33.6403 50.8678 33.6403 50.8678C33.4587 50.9465 29.9992 55.1607 27.5679 54.1504C25.0241 53.0889 26.3453 49.5602 26.8287 48.4987C27.2392 47.6045 27.6933 46.7337 27.6933 46.7337C27.6933 46.7337 27.3032 46.8526 27.0538 46.9134C26.8044 46.9742 26.4437 47.0516 26.4437 47.0516C26.4437 47.0516 25.2403 49.1649 24.5049 50.2195C23.7695 51.2741 20.6438 54.8981 18.8021 54.1766C16.9604 53.4552 17.417 50.6701 18.4517 48.4587C20.1296 44.872 24.111 40.4643 26.509 41.1332C28.9313 41.8008 26.9259 46.0468 26.9259 46.0468C26.9259 46.0468 27.4081 46.1145 28.5629 45.2631C30.2255 44.0371 32.4202 40.7393 34.7965 41.1263C35.9168 41.3088 36.9604 42.5458 35.5331 44.8955C35.0778 45.6501 34.3143 46.3246 33.7298 45.657C33.3653 45.2424 33.6838 44.4863 34.0662 43.9694C34.215 43.7587 34.4095 43.5908 34.6325 43.4804C34.8556 43.37 35.1003 43.3205 35.3451 43.3364C35.3451 43.3364 35.7378 42.3689 34.7389 42.3827C33.9306 42.3993 31.8843 44.4352 30.7294 46.4919C29.6705 48.3799 28.0654 51.5962 29.6769 52.2969C31.1541 52.941 33.9652 49.335 35.2671 47.4455C36.5691 45.5561 39.5362 41.2742 42.025 41.1028C42.8819 41.042 43.3922 41.8865 43.3922 41.8865L43.6799 41.3945H46.1687C46.1687 41.3945 41.4815 49.8477 41.1157 50.4877C40.8279 50.988 40.4455 52.1131 41.4994 51.4828C42.5532 50.8526 44.7619 47.7869 44.7619 47.7869ZM43.4075 61.3321C41.575 59.9612 39.3807 59.2691 37.1535 59.3597C36.5507 59.3775 35.9603 59.5486 35.4301 59.8591C34.8999 60.1696 34.4449 60.6108 34.102 61.1469C33.153 59.357 31.2768 58.2582 28.3762 58.283C23.6889 58.3411 19.04 60.6769 15.3567 60.6742C11.8268 60.6742 9.25232 58.2761 9.33545 54.0177C9.4902 46.5444 15.3336 39.8147 19.6948 36.7863C22.2092 35.0462 24.3118 34.5293 25.6866 34.6965C26.6893 34.8168 27.8953 36.069 27.1344 37.9142C26.0166 40.6108 24.4729 40.3896 24.5305 39.1001C24.5624 38.2611 25.0791 37.7331 25.4679 37.4415C25.7147 37.2577 26.1509 37.2051 26.3785 37.1996C26.5998 36.9978 26.7622 35.5217 24.9717 36.0068C23.1812 36.492 21.007 38.3993 18.9428 40.8637C16.8786 43.3281 13.6646 47.986 12.8704 52.8774C12.4995 55.1455 12.7425 59.2823 17.7188 59.2353C21.9393 59.198 28.1601 56.1946 33.8769 56.2568C36.0959 56.2803 38.027 56.9271 39.5324 57.9306C41.0108 58.9147 42.7834 60.3521 43.4126 61.3335" fill="white"/>
</g>
<defs>
<clipPath id="clip0_3270_5782">
<rect width="96" height="96" rx="48" fill="white"/>
</clipPath>
</defs>
</svg>
