<svg width="37" height="36" viewBox="0 0 37 36" fill="none" xmlns="http://www.w3.org/2000/svg">
<g id="dort_dortlukler_icon">
<g id="Layer 1">
<path id="Vector" d="M36.1665 18C36.1665 27.665 28.3315 35.5 18.6665 35.5C9.00152 35.5 1.1665 27.665 1.1665 18C1.1665 8.33502 9.00152 0.5 18.6665 0.5C28.3315 0.5 36.1665 8.33502 36.1665 18Z" fill="#820070" stroke="white"/>
<path id="Vector_2" d="M15.8196 17.8212C15.4778 16.0916 15.2225 12.2695 14.6125 10.5807C13.1932 6.64056 7.32881 7.73067 8.33843 12.0944C4.80719 11.9297 3.91609 16.8193 7.06103 18.1161C7.91047 18.5181 8.85901 18.6601 9.79339 18.5638C11.0663 18.4275 14.6166 18.0756 15.8345 17.9361L15.8196 17.8212Z" fill="#FF3C00"/>
<path id="Vector_3" fill-rule="evenodd" clip-rule="evenodd" d="M28.1501 12.0741L27.977 8.54735C27.977 7.72016 27.3775 7.00177 26.5584 6.88528C26.0043 6.8064 25.2762 7.00137 24.9227 7.3549C24.7684 7.50926 24.6461 7.69254 24.5628 7.89425C24.4795 8.09596 24.4369 8.31213 24.4373 8.53036V9.40042L24.451 9.44087L23.5207 6.86141C23.1619 5.86474 22.0734 5.3126 21.0695 5.65198C20.5834 5.81551 20.182 6.16514 19.9533 6.62419C19.7246 7.08325 19.6873 7.61426 19.8495 8.10078L21.8821 14.2746L21.8643 14.2875C20.3534 14.041 18.8043 14.1992 17.3744 14.7458C16.5055 15.0807 16.0396 16.0471 16.3599 16.9212C16.6961 17.8418 17.7352 18.2932 18.6251 17.9025C19.6432 17.4547 20.8146 17.5502 21.7801 18.0886C22.9196 18.7228 23.82 20.0188 23.5361 21.3629C23.242 22.7532 21.7992 23.7159 20.4069 23.5796C18.9912 23.44 18.2275 22.1792 17.8808 20.9293C17.7595 20.4961 17.6519 20.0528 17.4302 19.6616C17.0682 19.0246 16.2236 18.684 15.5133 18.8053C14.4726 18.9825 14.2893 20.0188 14.4006 20.9204C14.6028 22.5736 15.4381 24.2235 16.3017 25.6259C16.4434 25.8654 16.5998 26.0959 16.7701 26.316C17.3303 27.0145 17.9642 27.6815 18.3294 28.5112C18.7468 29.4605 18.5911 30.4362 18.5907 31.4421C18.5911 31.4423 18.5915 31.4425 18.5919 31.4425C18.5924 31.4425 18.5928 31.4423 18.5931 31.4421H25.4089L29.3046 16.8646C29.485 16.19 29.7223 15.5319 30.014 14.8975L30.9565 12.8495C31.0446 12.6581 31.092 12.4505 31.0957 12.2398C31.0995 12.0292 31.0595 11.82 30.9783 11.6256C30.8971 11.4311 30.7765 11.2556 30.624 11.1102C30.4715 10.9647 30.2906 10.8525 30.0925 10.7806C29.3349 10.5055 28.4944 10.8861 28.1667 11.6227" fill="white"/>
<path id="Vector_4" d="M24.0867 7.57697C24.0867 7.57697 27.7619 18.1707 28.886 23.1002" stroke="#820070" stroke-width="0.5" stroke-miterlimit="10"/>
<path id="Vector_5" d="M28.3232 10.3013L28.555 21.7675" stroke="#820070" stroke-width="0.5" stroke-miterlimit="10"/>
</g>
</g>
</svg>
