<svg width="96" height="96" viewBox="0 0 96 96" fill="none" xmlns="http://www.w3.org/2000/svg">
<rect width="96" height="96" rx="48" fill="#F1D10A"/>
<path d="M81.9876 53.0314L81.2859 53.9672C80.4817 55.0515 79.6542 55.8532 78.8408 56.3326C78.0642 56.7956 77.0208 57.0275 75.7196 57.0179C74.8501 57.0117 74.0615 56.8363 73.357 56.5056C72.6647 56.1848 72.0751 55.7182 71.5938 55.1565C71.1066 54.5745 70.7246 53.877 70.4574 53.0774C70.1807 52.2775 70.0405 51.3724 70.0454 50.4052C70.0502 49.4711 70.1935 48.588 70.4565 47.7921C70.7196 47.0096 71.1054 46.3309 71.5986 45.756C72.0641 45.1945 72.6553 44.75 73.3568 44.4394C74.0709 44.1187 74.9012 43.9619 75.8292 43.9687C76.924 43.9766 77.8662 44.2427 78.7146 44.7808C79.5845 45.339 80.336 46.0987 80.9605 47.0175L81.6673 48.0564L87.6117 41.6644L87.1129 40.9028C85.7208 38.7487 83.9616 37.2035 81.894 36.3142C79.9093 35.4555 77.7129 35.0174 75.3756 35.0004C73.285 34.9853 71.3402 35.3667 69.5941 36.1319C67.8354 36.9002 66.2942 37.9991 65.0228 39.406C63.7514 40.7961 62.7469 42.4641 62.0617 44.3672C61.3705 46.2468 61.0114 48.335 61.0003 50.5421C60.9887 52.7957 61.3389 54.889 62.023 56.7754C62.7195 58.6687 63.6855 60.3243 64.9335 61.6995C66.1754 63.0715 67.7025 64.1661 69.4469 64.9435C70.7329 65.5244 72.1251 65.8868 73.6105 66.0473L73.5853 71L77.7555 65.9578C81.616 65.3843 84.858 63.3868 87.4069 59.9983L88 59.218L81.9876 53.0314Z" fill="#312F33"/>
<path d="M52.46 64.9481L43.8592 51.9136L43.7905 64.8873L35 64.8256L35.0135 36L42.9155 36.0036L51.137 48.6283L51.2033 36.0073L60 36.0113L59.9863 65L52.46 64.9481Z" fill="#312F33"/>
<path d="M21.4603 65.9995C19.2511 65.9837 17.2197 65.6016 15.4442 64.87C13.6376 64.1382 12.0897 63.0736 10.8259 61.7128C9.56853 60.3488 8.59487 58.6787 7.94924 56.746C7.30951 54.8464 6.98804 52.7105 7.00034 50.3682C7.0118 48.1585 7.3833 46.0873 8.10239 44.2006C8.82148 42.304 9.84367 40.6548 11.1405 39.2923C12.4309 37.9301 13.9899 36.8611 15.7637 36.1016C17.5343 35.3524 19.5037 34.9854 21.6219 35.0004C23.8999 35.0165 26.0535 35.4262 28.0419 36.2421C30.0961 37.0784 31.8333 38.4823 33.2011 40.3937L33.7525 41.1696L27.8741 47.3498L27.1377 46.5692C26.4107 45.7886 25.6201 45.1336 24.7818 44.6375C24.0278 44.1782 23.1284 43.9464 22.0869 43.939C21.1265 43.9322 20.2816 44.0952 19.5549 44.4312C18.8346 44.7706 18.2358 45.2368 17.737 45.8164C17.2507 46.3961 16.8517 47.0987 16.5903 47.9055C16.316 48.7251 16.1702 49.6219 16.1653 50.5561C16.1599 51.6029 16.3055 52.5416 16.5839 53.3586C16.8713 54.1692 17.2726 54.8577 17.7717 55.431C18.2552 55.9845 18.8586 56.4227 19.5724 56.7326C20.2986 57.0559 21.1418 57.2244 22.055 57.2307C22.8238 57.2363 23.5523 57.142 24.2436 56.9547C24.7433 56.8159 25.2434 56.5909 25.7313 56.2862L25.7364 55.3455L21.0571 55.3126L21.0601 48.8811L34 48.8871L33.9941 61.5461L33.9939 61.8783C32.3168 63.3573 29.966 64.43 27.8131 65.074C25.7106 65.6983 23.5847 66.0146 21.4603 65.9995Z" fill="#312F33"/>
</svg>
