<svg width="22" height="16" viewBox="0 0 22 16" fill="none" xmlns="http://www.w3.org/2000/svg">
<path fill-rule="evenodd" clip-rule="evenodd" d="M19.2329 0C20.9011 0 22.1347 1.34315 21.9882 3L21.1041 13C20.9576 14.6569 19.4866 16 17.8184 16H7.74997C6.11337 16 4.89507 14.7072 4.98784 13.0938L1.64337 13.0938C0.978704 13.0938 0.487197 12.5586 0.54556 11.8984C0.603923 11.2383 1.19006 10.7031 1.85472 10.7031H5.19774L5.35798 8.89062H4.18596C3.52129 8.89062 3.02979 8.35546 3.08815 7.69531C3.14651 7.03516 3.73264 6.5 4.39731 6.5H5.56934L5.68399 5.20312H4.08721C3.42254 5.20312 2.93103 4.66797 2.9894 4.00781C3.04776 3.34766 3.63389 2.8125 4.29856 2.8125L5.90115 2.8125C6.13736 1.24299 7.55973 0 9.16451 0H19.2329ZM1.31387 6.5C1.97854 6.5 2.47004 7.03516 2.41168 7.69531C2.35332 8.35546 1.76718 8.89062 1.10252 8.89062C0.437848 8.89062 -0.0536592 8.35546 0.00470389 7.69531C0.063067 7.03516 0.649199 6.5 1.31387 6.5Z" fill="#FF3C00"/>
<path fill-rule="evenodd" clip-rule="evenodd" d="M18.2994 3.81259C17.6786 3.50755 16.6326 3.35765 15.5586 3.85291C14.9606 4.12859 14.4813 4.54583 14.0991 5.00953C13.8386 4.54627 13.4688 4.1299 12.9448 3.85466C11.9988 3.35765 10.9126 3.50711 10.2113 3.81259C9.27657 4.21975 8.5322 5.00339 8.05915 6.07761C7.84071 6.57375 7.74559 7.08872 7.75966 7.69881C7.77967 8.58062 8.0073 9.45324 8.41727 10.222L9.37929 12.0255C9.53844 12.324 9.83514 12.4839 10.1573 12.4839C10.3583 12.4839 10.5699 12.4217 10.7644 12.292C11.2705 11.9545 11.4715 11.2879 11.2126 10.8027L10.2505 8.99918C9.98022 8.49253 9.8306 7.9254 9.81793 7.35914C9.8117 7.0896 9.85613 6.90903 9.91297 6.73898C10.0938 6.19814 10.4182 5.92728 10.7784 5.77038C10.9144 5.71121 11.313 5.60559 11.686 5.73181C12.1729 5.8782 12.6788 6.49091 13.0274 7.36878C13.0308 7.37755 13.0343 7.38631 13.0377 7.39508C13.1138 7.59011 13.182 7.7983 13.2408 8.01656C13.2435 8.02796 13.2458 8.03935 13.2493 8.05075C13.2504 8.05513 13.252 8.05907 13.2535 8.06346C13.3109 8.23877 13.4654 8.36105 13.6622 8.36105C13.8641 8.36105 14.055 8.23307 14.1561 8.05031L14.1578 8.04724C14.1595 8.04373 14.1616 8.04023 14.1633 8.03716C14.8098 6.80866 15.6745 5.91282 16.3248 5.73225C16.7306 5.60603 17.1017 5.71165 17.2219 5.77082C17.5411 5.92772 17.7799 6.20208 17.8348 6.73941C17.852 6.90815 17.8446 7.09004 17.7681 7.35958C17.6074 7.92584 17.3099 8.49297 16.9079 8.99962L15.4757 10.8031C15.0908 11.2879 15.1175 11.9549 15.5356 12.2924C15.6963 12.4221 15.8913 12.4844 16.0927 12.4844C16.4152 12.4844 16.7532 12.3244 16.9902 12.0259L18.4224 10.2224C19.0328 9.45368 19.4875 8.58106 19.7378 7.69968C19.9109 7.0896 19.9501 6.57418 19.8609 6.07849C19.6681 5.00295 19.128 4.21975 18.2994 3.81259Z" fill="white"/>
</svg>
