<svg width="17" height="16" viewBox="0 0 17 16" fill="none" xmlns="http://www.w3.org/2000/svg">
<path d="M13.5 0H3.5C1.84315 0 0.5 1.34315 0.5 3V13C0.5 14.6569 1.84315 16 3.5 16H13.5C15.1569 16 16.5 14.6569 16.5 13V3C16.5 1.34315 15.1569 0 13.5 0Z" fill="#292A2C"/>
<path fill-rule="evenodd" clip-rule="evenodd" d="M12.0138 8.21035C12.3365 7.76762 12.5 7.18634 12.5 6.48221V6.45679C12.5 5.60818 12.2419 4.91887 11.7324 4.40835C11.1313 3.80589 10.2572 3.5 9.13474 3.5H5.50924C5.23084 3.5 4.99089 3.59956 4.79487 3.79572C4.59928 3.99188 4.5 4.23295 4.5 4.51215V11.4879C4.5 11.7671 4.59928 12.0077 4.79487 12.2043C4.99047 12.4004 5.23084 12.5 5.50924 12.5C5.78764 12.5 6.02759 12.4004 6.22361 12.2043C6.41921 12.0081 6.51848 11.7671 6.51848 11.4879V9.59363H8.57414L10.4528 11.9802C10.5723 12.1259 10.7109 12.2496 10.8651 12.3483C11.0223 12.4487 11.2157 12.4996 11.4405 12.4996C11.6842 12.4996 11.9069 12.4136 12.102 12.2433C12.2989 12.0721 12.399 11.8429 12.399 11.5624C12.399 11.4052 12.3678 11.2654 12.3065 11.1464C12.2465 11.0307 12.1688 10.9117 12.0754 10.7918L10.7608 9.18818C11.28 8.96745 11.7011 8.63868 12.0138 8.21035ZM6.38235 5.39474H8.8734C9.34835 5.39474 9.72334 5.49427 9.98806 5.69089C10.2498 5.88505 10.3824 6.18203 10.3824 6.5728V6.59738C10.3824 6.94924 10.2554 7.23393 10.0057 7.44447C9.7538 7.65584 9.38611 7.76316 8.91201 7.76316H6.38278L6.38235 5.39474Z" fill="white"/>
</svg>
