<svg width="24" height="24" viewBox="0 0 24 24" fill="none" xmlns="http://www.w3.org/2000/svg">
<g clip-path="url(#clip0_6251_143)">
<rect x="0.239746" y="0.30957" width="23.5318" height="23.5337" rx="11.7659" fill="white"/>
<path d="M11.6314 0.315258C10.4687 0.353895 9.36262 0.551573 8.27988 0.911888C6.08655 1.6433 4.15558 3.00908 2.72061 4.8439C1.56959 6.3166 0.776174 8.07505 0.436526 9.90717C0.299948 10.6413 0.239746 11.3089 0.239746 12.0771C0.239746 12.5794 0.258615 12.9335 0.309832 13.398C0.638698 16.3416 2.07187 19.0525 4.32631 20.9961C6.12159 22.5424 8.33559 23.5093 10.6835 23.7716C11.423 23.8534 12.2002 23.866 12.9523 23.8076C16.0891 23.5614 19.0174 22.0437 21.0427 19.6114C23.0779 17.1683 24.0295 14.0575 23.7114 10.8821C23.4158 7.92589 21.997 5.18355 19.7444 3.21395C17.9392 1.63431 15.7081 0.651312 13.3252 0.383547C12.7932 0.323345 12.149 0.298185 11.6314 0.315258ZM11.945 3.15015C12.4248 3.22563 12.84 3.4305 13.1805 3.76116C13.4932 4.06487 13.7026 4.42877 13.805 4.8457C13.8634 5.08381 13.8733 5.23926 13.8733 5.95449V6.49362H15.0081L16.1421 6.49272L16.1924 6.51788C16.2517 6.54663 16.311 6.60773 16.3371 6.66524C16.3578 6.71196 16.3335 6.46307 16.6597 10.0258C16.7855 11.3961 16.8897 12.5174 16.8924 12.5174C16.8951 12.5174 16.9418 12.4348 16.9957 12.335C17.0802 12.1796 17.1035 12.1445 17.1575 12.0897C17.2761 11.9702 17.4108 11.9181 17.5834 11.9271C17.6463 11.9298 17.6957 11.9379 17.7289 11.9496C17.7568 11.9594 18.4262 12.326 19.216 12.7645L20.6528 13.5624L20.7229 13.6325C20.7768 13.6873 20.8001 13.7188 20.8289 13.7781C20.8927 13.9111 20.9044 14.0512 20.863 14.1833C20.854 14.2139 20.7444 14.4214 20.6141 14.6551C20.4102 15.0235 20.3787 15.0747 20.3518 15.0882C20.3284 15.0998 20.2556 15.1106 20.0822 15.1286C19.951 15.1421 19.8432 15.1537 19.8414 15.1546C19.8405 15.1555 19.8881 15.2571 19.9483 15.3793C20.0454 15.5797 20.057 15.6075 20.0526 15.6399C20.049 15.6659 19.7417 16.2275 18.9141 17.7182C17.6885 19.9241 17.7532 19.8136 17.6346 19.8899C17.498 19.9771 17.3165 20.0023 17.1593 19.9555C17.1386 19.9493 16.5339 19.6177 15.815 19.2187L14.5086 18.4927L10.4552 18.4909L6.40193 18.4882L6.32286 18.4604C6.21144 18.4199 6.15214 18.3822 6.06498 18.295C5.93739 18.1674 5.87808 18.039 5.87 17.8682C5.8673 17.7964 5.96434 16.7001 6.36959 12.2838C6.64634 9.26202 6.87636 6.76587 6.88175 6.73622C6.90332 6.61492 6.9743 6.53585 7.09471 6.50081C7.14323 6.48643 7.23129 6.48643 8.25922 6.49002L9.37071 6.49452L9.3743 5.80174C9.3779 5.04068 9.3761 5.06314 9.439 4.81874C9.63847 4.03072 10.2675 3.40084 11.0564 3.19957C11.1768 3.16902 11.3241 3.14296 11.4382 3.13308C11.5254 3.12499 11.8597 3.13667 11.945 3.15015Z" fill="#003284"/>
<path d="M11.4815 3.71308C10.6782 3.77778 10.0384 4.41035 9.95576 5.22083C9.95037 5.27474 9.94678 5.55778 9.94678 5.90372V6.49316H11.6181H13.2893V5.89294C13.2893 5.16332 13.2822 5.08156 13.1977 4.83626C12.9488 4.11293 12.2434 3.65108 11.4815 3.71308Z" fill="#003284"/>
<path d="M10.05 10.3209C9.42015 10.4063 8.92325 10.7666 8.63392 11.3488C8.49645 11.6247 8.43355 11.8565 8.42187 12.1216C8.4039 12.5655 8.55306 13.1351 8.81183 13.6006C8.8945 13.7497 8.96908 13.8621 9.36174 14.4263C9.72206 14.9448 9.76249 14.996 9.86942 15.0589C9.98263 15.1263 10.1695 15.1515 10.3016 15.1182C10.4589 15.0778 10.6026 14.9619 10.6736 14.8172C10.7554 14.6501 10.7572 14.4704 10.6781 14.3095C10.6619 14.2745 10.4858 14.0139 10.2872 13.73C9.88559 13.154 9.84875 13.0974 9.77507 12.9438C9.64119 12.6661 9.5711 12.3921 9.58098 12.1845C9.59536 11.8808 9.73553 11.6508 9.97814 11.533C10.2037 11.4234 10.4975 11.4405 10.7149 11.5762C11.0294 11.7721 11.3349 12.1755 11.5641 12.6994C11.6288 12.8467 11.7105 12.9078 11.8426 12.9078C11.9657 12.9069 12.0556 12.8422 12.1077 12.7173C12.1535 12.6077 12.2694 12.3786 12.3359 12.269C12.6001 11.835 12.8984 11.5582 13.1859 11.4827C13.2785 11.4585 13.451 11.4558 13.5498 11.4773C13.7062 11.5124 13.8679 11.6184 13.9542 11.7442C14.0306 11.8565 14.0818 11.9922 14.0988 12.1315C14.124 12.3372 14.0395 12.6814 13.8913 12.9761C13.8293 13.0983 13.7637 13.1989 13.4771 13.6105C13.3225 13.8315 13.1563 14.0705 13.1078 14.1406C12.9775 14.3284 12.9451 14.412 12.9451 14.5611C12.9469 14.8244 13.123 15.0526 13.3755 15.1173C13.4465 15.1353 13.5921 15.1362 13.6622 15.1182C13.8176 15.0787 13.9227 14.9933 14.0602 14.7956C14.8141 13.7147 14.8069 13.7255 14.9255 13.4874C15.1142 13.11 15.2247 12.7245 15.2571 12.3327C15.284 12.0075 15.213 11.6795 15.0405 11.3399C14.7835 10.8313 14.3693 10.4907 13.8508 10.3614C13.6586 10.3128 13.3737 10.294 13.1716 10.3146C12.6729 10.3667 12.2245 10.6147 11.9055 11.0146L11.839 11.0991L11.821 11.073C11.7716 11.0065 11.6656 10.8861 11.5919 10.816C11.2945 10.533 10.936 10.3658 10.5218 10.3155C10.4175 10.3029 10.1587 10.3056 10.05 10.3209Z" fill="#003284"/>
<path d="M17.4789 12.207C17.425 12.2223 17.3747 12.2519 17.3397 12.2888C17.3055 12.3265 16.9371 12.9941 16.9371 13.0193C16.9371 13.031 16.9946 13.1586 17.0638 13.3023C17.1393 13.4578 17.1923 13.5791 17.195 13.6007C17.1986 13.6267 17.1941 13.6474 17.1806 13.6752C17.1483 13.7381 17.1267 13.7435 16.7862 13.7777C16.6217 13.7947 16.486 13.81 16.4851 13.8118C16.4609 13.8424 14.2855 17.7798 14.2783 17.8049C14.264 17.8579 14.2658 17.8993 14.2873 17.9667C14.3233 18.0844 14.2361 18.0305 15.796 18.8966C16.5642 19.3235 17.2157 19.6811 17.2426 19.6901C17.3361 19.7224 17.461 19.6928 17.531 19.6227C17.5517 19.602 17.9498 18.8939 18.6605 17.6144C19.2643 16.5272 19.7585 15.6322 19.7585 15.6269C19.7585 15.6215 19.6992 15.4966 19.6273 15.3501C19.5105 15.1129 19.4953 15.077 19.4944 15.0356C19.4944 15.0015 19.4989 14.9817 19.5123 14.9637C19.5555 14.9062 19.5546 14.9062 19.8897 14.8721L20.2015 14.8397L20.3947 14.4938C20.5007 14.3033 20.5933 14.1299 20.5996 14.1083C20.6301 14.0122 20.6041 13.9053 20.5331 13.8289C20.4953 13.7893 20.3264 13.6923 19.0891 13.0058C18.3182 12.5772 17.6712 12.2214 17.6524 12.2151C17.5975 12.1953 17.531 12.1926 17.4789 12.207ZM17.5993 13.7534C17.6326 13.7714 17.6739 13.7992 17.691 13.8154C17.7179 13.8415 17.7224 13.8531 17.726 13.8981C17.7287 13.9421 17.726 13.9556 17.7081 13.9807C17.6829 14.0176 17.6353 14.0445 17.5939 14.0445C17.5544 14.0445 17.4268 13.9771 17.399 13.9412C17.3585 13.8882 17.3603 13.8244 17.4017 13.7741C17.4529 13.713 17.5113 13.7076 17.5993 13.7534ZM18.1439 14.0553C18.2292 14.1011 18.258 14.1371 18.258 14.1955C18.258 14.279 18.2032 14.3357 18.1232 14.3357C18.0899 14.3357 18.0666 14.3267 18.01 14.2943C17.9318 14.2494 17.8986 14.2081 17.8986 14.1524C17.8986 14.1101 17.9327 14.0544 17.9704 14.0346C18.0208 14.0077 18.0621 14.0131 18.1439 14.0553ZM18.6803 14.3545C18.7611 14.4004 18.7881 14.4345 18.7881 14.4929C18.7881 14.5702 18.7306 14.6286 18.6542 14.6286C18.6183 14.6286 18.5284 14.5899 18.4817 14.554C18.4556 14.5342 18.4287 14.4812 18.4287 14.4507C18.4287 14.3878 18.4637 14.3393 18.5248 14.3186C18.5707 14.3024 18.6003 14.3096 18.6803 14.3545ZM19.1619 14.6232C19.2751 14.6762 19.3182 14.7202 19.3182 14.784C19.3182 14.8595 19.2679 14.9161 19.1933 14.9233C19.1583 14.926 19.1421 14.9215 19.0891 14.8937C18.9912 14.8415 18.9588 14.8038 18.9588 14.7409C18.9588 14.6699 19.0226 14.6034 19.0936 14.6025C19.1062 14.6016 19.1367 14.6115 19.1619 14.6232ZM17.1447 15.3411C17.1977 15.3771 17.213 15.4094 17.2193 15.502C17.2327 15.7131 17.2983 17.6387 17.2929 17.6683C17.2893 17.6872 17.275 17.716 17.2597 17.733C17.1887 17.8139 17.0512 17.7905 17.0144 17.6908C17.0036 17.6594 16.9937 17.4536 16.9614 16.5604C16.938 15.8919 16.9254 15.4552 16.9299 15.4337C16.9344 15.4148 16.9452 15.3878 16.9551 15.3744C16.9937 15.3196 17.0881 15.3034 17.1447 15.3411ZM16.3674 15.9593C16.5382 15.9899 16.699 16.1417 16.7583 16.3268C16.7844 16.4068 16.7844 16.5263 16.7583 16.6C16.6945 16.7815 16.5148 16.9109 16.3261 16.9109C16.1976 16.9109 16.1033 16.8686 15.9981 16.7626C15.9128 16.6773 15.8661 16.5928 15.8436 16.4841C15.805 16.2909 15.9065 16.0968 16.0952 16.0033C16.2003 15.9512 16.2668 15.9404 16.3674 15.9593ZM18.0064 16.1929C18.1699 16.2307 18.3334 16.3978 18.3793 16.5748C18.3972 16.6431 18.3963 16.7509 18.3784 16.8129C18.3173 17.0214 18.0872 17.1697 17.877 17.1364C17.6577 17.1014 17.4708 16.8911 17.452 16.6593C17.4421 16.5317 17.4861 16.4221 17.5877 16.3223C17.6524 16.2576 17.7332 16.21 17.8051 16.1929C17.8536 16.1822 17.9579 16.1813 18.0064 16.1929Z" fill="#FF3C00"/>
<path d="M16.1841 16.228C16.1347 16.2504 16.1059 16.3079 16.1149 16.3654C16.1302 16.4553 16.2138 16.5775 16.2919 16.6233C16.4114 16.6934 16.5247 16.6143 16.4959 16.4813C16.4761 16.3888 16.3845 16.2702 16.3036 16.2316C16.2497 16.2055 16.2344 16.2055 16.1841 16.228Z" fill="#FF3C00"/>
<path d="M17.8034 16.4533C17.7746 16.4649 17.7387 16.5135 17.7315 16.5476C17.7117 16.6563 17.8429 16.8441 17.9615 16.8765C17.9975 16.8863 18.0073 16.8854 18.0442 16.8684C18.1008 16.8432 18.1179 16.81 18.1116 16.7354C18.1062 16.6662 18.0747 16.6051 18.0064 16.5305C17.9372 16.4559 17.8654 16.4281 17.8034 16.4533Z" fill="#FF3C00"/>
<path d="M15.1837 11.6762C14.9952 11.0971 14.6318 10.6749 14.1329 10.4554C13.7592 10.2908 13.1561 10.2103 12.5846 10.477C12.2664 10.6256 12.026 10.8503 11.8439 11.1005C11.6624 10.8508 11.4225 10.6264 11.1053 10.4781C10.5333 10.21 9.92946 10.2908 9.55498 10.4554C9.05603 10.6749 8.69266 11.0971 8.50413 11.6762C8.41709 11.9435 8.40134 12.2213 8.45428 12.5499C8.53073 13.025 8.72391 13.4953 9.01264 13.9095L9.69005 14.8815C9.80214 15.0425 9.98188 15.1286 10.1642 15.1286C10.2781 15.1286 10.393 15.0951 10.4935 15.0252C10.7551 14.8433 10.8197 14.484 10.6373 14.2227L9.95993 13.2507C9.7696 12.9778 9.64305 12.6722 9.59398 12.3668C9.57074 12.2215 9.58236 12.124 9.60199 12.0325C9.66448 11.741 9.82796 11.595 10.0204 11.5104C10.0929 11.4784 10.3106 11.4216 10.5312 11.4897C10.8176 11.5687 11.1492 11.8988 11.4111 12.3722C11.4137 12.3768 11.4163 12.3817 11.4188 12.3864C11.4764 12.4913 11.5301 12.6036 11.5797 12.7212C11.5821 12.7274 11.5844 12.7336 11.587 12.7395C11.588 12.7418 11.5893 12.7441 11.5903 12.7465C11.6358 12.8409 11.7321 12.9066 11.8437 12.9066C11.9552 12.9066 12.0565 12.8375 12.1004 12.7392C12.1004 12.7387 12.1009 12.7382 12.1012 12.7374C12.1019 12.7356 12.1027 12.7338 12.1035 12.732C12.3788 12.0699 12.8021 11.5872 13.1567 11.4897C13.377 11.4216 13.5947 11.4786 13.6672 11.5106C13.8596 11.5952 14.0149 11.743 14.0856 12.0327C14.1078 12.1238 14.1171 12.2218 14.0936 12.367C14.0446 12.6722 13.918 12.9778 13.7277 13.251L13.0503 14.223C12.8682 14.4843 12.9325 14.8436 13.1941 15.0254C13.2946 15.0953 13.4095 15.1289 13.5234 15.1289C13.706 15.1289 13.8855 15.0427 13.9975 14.8818L14.6752 13.9098C14.964 13.4955 15.1571 13.0253 15.2336 12.5502C15.2865 12.2213 15.2705 11.9437 15.1837 11.6765V11.6762Z" fill="#FF3C00"/>
</g>
<defs>
<clipPath id="clip0_6251_143">
<rect width="24" height="24" rx="12" fill="white"/>
</clipPath>
</defs>
</svg>
